# xmcd CD database file
#
# Track frame offsets:
#	150
#	25451
#	53562
#	89907
#	120544
#	143906
#	174545
#	197527
#	218749
#	254140
#
# Disc length: 3684 seconds
#
# Revision: 0
# Processed by: cddbd v1.5.2PL0 Copyright (c) Steve Scherf et al.
# Submitted via: CDex 1.51
#
DISCID=950e620a
DTITLE=Various Artist - Power Pilates
DYEAR=1900
DGENRE=New Age
TTITLE0=Moodfood - Flower
TTITLE1=Soulfood and Brent Lewis - Vinyasa
TTITLE2=Soulfood - Chamber 12
TTITLE3=Soulfood and Jadoo - Tantric Body
TTITLE4=Moodfood - Shaken Not Stirred
TTITLE5=Soulfood - Chamber 16
TTITLE6=Soulfood and Jadoo - Falling Rain
TTITLE7=Soulfood, Brent Lewis and Rita Coolidge - Vision Quest
TTITLE8=Soulfood, Brent Lewis and Rita Coolidge - Echo Canyon
TTITLE9=Soulfood and Ra Music - Rio Chama
EXTD=
EXTT0=
EXTT1=
EXTT2=
EXTT3=
EXTT4=
EXTT5=
EXTT6=
EXTT7=
EXTT8=
EXTT9=
PLAYORDER=
